<svg width="24.000000" height="24.000000" viewBox="0 0 24 24" fill="none" xmlns="http://www.w3.org/2000/svg" xmlns:xlink="http://www.w3.org/1999/xlink">
	<desc>
			Created with Pixso.
	</desc>
	<defs>
		<clipPath id="clip211_1270">
			<rect id="icon 04" width="24.000000" height="24.000000" fill="white" fill-opacity="0"/>
		</clipPath>
	</defs>
	<rect id="icon 04" width="24.000000" height="24.000000" fill="#FFFFFF" fill-opacity="0"/>
	<g clip-path="url(#clip211_1270)">
		<mask id="mask211_1258" mask-type="alpha" maskUnits="userSpaceOnUse" x="0.000000" y="0.000000" width="24.000000" height="24.000000">
			<path id="Vector" d="M0 0L24 0L24 24L0 24L0 0Z" fill="#000000" fill-opacity="1.000000" fill-rule="nonzero"/>
			<path id="Vector" d="M24 0L0 0L0 24L24 24L24 0ZM23 23L1 23L1 1L23 1L23 23Z" fill="#000000" fill-opacity="1.000000" fill-rule="evenodd"/>
		</mask>
		<g mask="url(#mask211_1258)">
			<path id="Vector" d="M1.25 7.75C0.75 7.01 0.46 6.11 0.46 5.15C0.46 2.56 2.56 0.46 5.15 0.46C7.74 0.46 9.84 2.56 9.84 5.15C9.84 6.11 9.55 7.01 9.05 7.75L5.15 14.15L1.25 7.75Z" stroke="#FFFFFF" stroke-opacity="1.000000" stroke-width="1.000000" stroke-linejoin="round"/>
			<path id="Vector" d="M5.15 7.03C4.12 7.03 3.28 6.19 3.28 5.15C3.28 4.12 4.12 3.28 5.15 3.28C6.19 3.28 7.03 4.12 7.03 5.15C7.03 6.19 6.19 7.03 5.15 7.03Z" stroke="#FFFFFF" stroke-opacity="1.000000" stroke-width="1.000000" stroke-linejoin="round"/>
			<path id="Vector" d="M19.78 22.59C19.78 23.11 19.36 23.53 18.84 23.53C18.32 23.53 17.9 23.11 17.9 22.59C17.9 22.07 18.32 21.65 18.84 21.65C19.36 21.65 19.78 22.07 19.78 22.59ZM18.84 21.65L14.94 15.53C14.44 14.79 14.15 13.89 14.15 12.93C14.15 10.34 16.25 8.25 18.84 8.25C21.43 8.25 23.53 10.34 23.53 12.93C23.53 13.89 23.24 14.79 22.74 15.53L18.84 21.65" stroke="#FFFFFF" stroke-opacity="1.000000" stroke-width="1.000000" stroke-linejoin="round"/>
			<path id="Vector" d="M18.84 14.81C17.8 14.81 16.96 13.97 16.96 12.93C16.96 11.9 17.8 11.06 18.84 11.06C19.87 11.06 20.71 11.9 20.71 12.93C20.71 13.97 19.87 14.81 18.84 14.81Z" stroke="#FFFFFF" stroke-opacity="1.000000" stroke-width="1.000000" stroke-linejoin="round"/>
			<path id="Vector" d="M5.15 16.03C4.63 16.03 4.21 15.61 4.21 15.09C4.21 14.57 4.63 14.15 5.15 14.15C5.67 14.15 6.09 14.57 6.09 15.09C6.09 15.61 5.67 16.03 5.15 16.03Z" stroke="#FFFFFF" stroke-opacity="1.000000" stroke-width="1.000000" stroke-linejoin="round"/>
			<path id="Vector" d="M11.76 22.59C11.76 22.85 11.55 23.06 11.29 23.06C11.03 23.06 10.82 22.85 10.82 22.59C10.82 22.33 11.03 22.12 11.29 22.12C11.55 22.12 11.76 22.33 11.76 22.59Z" fill="#FFFFFF" fill-opacity="1.000000" fill-rule="nonzero"/>
			<path id="Vector" d="" fill="#FFFFFF" fill-opacity="1.000000" fill-rule="evenodd"/>
			<path id="Vector" d="M6.09 15.09L10.12 15.09C11.16 15.09 12 15.93 12 16.96C12 18 11.16 18.84 10.12 18.84L4.5 18.84C3.46 18.84 2.62 19.68 2.62 20.71C2.62 21.75 3.46 22.59 4.5 22.59L9.18 22.59" stroke="#FFFFFF" stroke-opacity="1.000000" stroke-width="1.000000" stroke-linejoin="round" stroke-linecap="round"/>
			<path id="Vector" d="M13.4 22.59L17.9 22.59" stroke="#FFFFFF" stroke-opacity="1.000000" stroke-width="1.000000" stroke-linejoin="round" stroke-linecap="round"/>
		</g>
	</g>
</svg>
