<svg width="24.000000" height="24.000000" viewBox="0 0 24 24" fill="none" xmlns="http://www.w3.org/2000/svg" xmlns:xlink="http://www.w3.org/1999/xlink">
	<desc>
			Created with Pixso.
	</desc>
	<defs>
		<clipPath id="clip211_743">
			<rect id="icon 02" width="24.000000" height="24.000000" fill="white" fill-opacity="0"/>
		</clipPath>
	</defs>
	<rect id="icon 02" width="24.000000" height="24.000000" fill="#FFFFFF" fill-opacity="0"/>
	<g clip-path="url(#clip211_743)">
		<mask id="mask211_746" mask-type="alpha" maskUnits="userSpaceOnUse" x="0.500000" y="0.000000" width="23.000000" height="24.000000">
			<path id="Vector" d="M0.5 0L23.5 0L23.5 24L0.5 24L0.5 0Z" fill="#000000" fill-opacity="1.000000" fill-rule="nonzero"/>
			<path id="Vector" d="M23.5 0L0.5 0L0.5 24L23.5 24L23.5 0ZM22.5 23L1.5 23L1.5 1L22.5 1L22.5 23Z" fill="#000000" fill-opacity="1.000000" fill-rule="evenodd"/>
		</mask>
		<g mask="url(#mask211_746)">
			<path id="Vector" d="M15.99 5L12.78 1.35C12.33 0.88 11.65 0.88 11.21 1.35L7.99 5" stroke="#FFFFFF" stroke-opacity="1.000000" stroke-width="1.000000" stroke-linejoin="round" stroke-linecap="round"/>
			<path id="Vector" d="M21.54 10.25L20.11 11.68" stroke="#FFFFFF" stroke-opacity="1.000000" stroke-width="1.000000" stroke-linejoin="round" stroke-linecap="round"/>
			<path id="Vector" d="M13.71 18.07L21.87 22.55" stroke="#FFFFFF" stroke-opacity="1.000000" stroke-width="1.000000" stroke-linejoin="round" stroke-linecap="round"/>
			<path id="Vector" d="M3.88 11.68L2.45 10.25" stroke="#FFFFFF" stroke-opacity="1.000000" stroke-width="1.000000" stroke-linejoin="round" stroke-linecap="round"/>
			<path id="Vector" d="M10.28 18.07L2.12 22.55" stroke="#FFFFFF" stroke-opacity="1.000000" stroke-width="1.000000" stroke-linejoin="round" stroke-linecap="round"/>
			<path id="Vector" d="M17.13 23.66L20.77 23.66C21.38 23.66 21.87 23.16 21.87 22.55L21.87 11.06C21.87 10.91 21.84 10.76 21.79 10.62C21.73 10.49 21.64 10.36 21.54 10.26L20.11 8.86" stroke="#FFFFFF" stroke-opacity="1.000000" stroke-width="1.000000" stroke-linejoin="round" stroke-linecap="round"/>
			<path id="Vector" d="M2.12 16.37L2.12 22.55C2.12 23.16 2.61 23.66 3.22 23.66L15.66 23.66" stroke="#FFFFFF" stroke-opacity="1.000000" stroke-width="1.000000" stroke-linejoin="round" stroke-linecap="round"/>
			<path id="Vector" d="M3.88 8.86L2.45 10.25C2.35 10.36 2.26 10.48 2.2 10.62C2.15 10.76 2.12 10.91 2.12 11.06L2.12 14.9" stroke="#FFFFFF" stroke-opacity="1.000000" stroke-width="1.000000" stroke-linejoin="round" stroke-linecap="round"/>
			<path id="Vector" d="M20.11 6.52L20.11 5.72C20.11 5.1 19.61 4.6 18.99 4.6L5 4.6C4.38 4.6 3.88 5.1 3.88 5.72L3.88 11.68L10.28 18.07L11.46 17.42C11.62 17.33 11.81 17.28 11.99 17.28C12.18 17.28 12.36 17.33 12.53 17.42L13.71 18.07L20.11 11.68L20.11 7.95" stroke="#FFFFFF" stroke-opacity="1.000000" stroke-width="1.000000" stroke-linejoin="round" stroke-linecap="round"/>
			<path id="Vector" d="M11.84 11.79C11.18 11.79 10.59 11.12 10.59 10.22C10.59 9.32 11.21 8.72 11.87 8.72C12.53 8.72 13.05 9.31 13.05 10.21C13.05 11.12 12.5 11.79 11.84 11.79Z" stroke="#FFFFFF" stroke-opacity="1.000000" stroke-width="1.000000" stroke-linejoin="round"/>
			<path id="Vector" d="M11.93 13.32C10.61 13.28 9.41 12.39 9.06 11.03C8.65 9.47 9.55 7.83 11.09 7.34C12.72 6.83 14.45 7.74 14.94 9.37C15.12 10.03 15.02 10.59 14.79 11.18C14.69 11.41 14.39 11.95 13.72 11.95C13.35 11.95 13.05 11.59 13.05 11.19L13.06 8.51" stroke="#FFFFFF" stroke-opacity="1.000000" stroke-width="1.000000" stroke-linejoin="round" stroke-linecap="round"/>
			<path id="Vector" d="M14.94 9.37C15.12 10.03 15.02 10.6 14.78 11.18" stroke="#FFFFFF" stroke-opacity="1.000000" stroke-width="1.000000" stroke-linejoin="round" stroke-linecap="round"/>
		</g>
	</g>
</svg>
