<svg width="24.000000" height="24.000000" viewBox="0 0 24 24" fill="none" xmlns="http://www.w3.org/2000/svg" xmlns:xlink="http://www.w3.org/1999/xlink">
	<desc>
			Created with Pixso.
	</desc>
	<defs>
		<clipPath id="clip130_3198">
			<rect id="icon 03" width="24.000000" height="24.000000" fill="white" fill-opacity="0"/>
		</clipPath>
	</defs>
	<rect id="icon 03" width="24.000000" height="24.000000" fill="#FFFFFF" fill-opacity="0"/>
	<g clip-path="url(#clip130_3198)">
		<mask id="mask211_299" mask-type="alpha" maskUnits="userSpaceOnUse" x="0.000000" y="0.000000" width="24.000000" height="24.000000">
			<path id="Vector" d="M0 0L24 0L24 24L0 24L0 0Z" fill="#000000" fill-opacity="1.000000" fill-rule="nonzero"/>
			<path id="Vector" d="M24 0L0 0L0 24L24 24L24 0ZM23 23L1 23L1 1L23 1L23 23Z" fill="#000000" fill-opacity="1.000000" fill-rule="evenodd"/>
		</mask>
		<g mask="url(#mask211_299)">
			<path id="Vector" d="M20.48 4.18C22.38 6.23 23.53 8.98 23.53 12C23.53 18.37 18.37 23.53 12 23.53C5.62 23.53 0.46 18.37 0.46 12C0.46 5.62 5.62 0.46 12 0.46C12.47 0.46 12.94 0.48 13.4 0.54" stroke="#FFFFFF" stroke-opacity="1.000000" stroke-width="1.000000" stroke-linejoin="round" stroke-linecap="round"/>
			<path id="Vector" d="M7.48 4.81C10.75 2.75 15.14 3.14 17.99 6C21.31 9.31 21.31 14.68 17.99 17.99C14.68 21.31 9.31 21.31 6 17.99C3.14 15.13 2.74 10.74 4.82 7.46" stroke="#FFFFFF" stroke-opacity="1.000000" stroke-width="1.000000" stroke-linejoin="round" stroke-linecap="round"/>
			<path id="Vector" d="M20.4 5.89L20.4 4.11L22.18 4.11" stroke="#FFFFFF" stroke-opacity="1.000000" stroke-width="1.000000" stroke-linejoin="round" stroke-linecap="round"/>
			<path id="Vector" d="M12 13.14C12.63 13.14 13.14 12.63 13.14 11.99C13.14 11.36 12.63 10.85 12 10.85C11.36 10.85 10.85 11.36 10.85 11.99C10.85 12.63 11.36 13.14 12 13.14Z" stroke="#FFFFFF" stroke-opacity="1.000000" stroke-width="1.000000" stroke-linejoin="round"/>
			<path id="Vector" d="M18.67 12L18.09 12" stroke="#FFFFFF" stroke-opacity="1.000000" stroke-width="1.000000" stroke-linejoin="round" stroke-linecap="round"/>
			<path id="Vector" d="M5.32 11.99L5.9 11.99" stroke="#FFFFFF" stroke-opacity="1.000000" stroke-width="1.000000" stroke-linejoin="round" stroke-linecap="round"/>
			<path id="Vector" d="M12.58 5.9L12 5.9" stroke="#FFFFFF" stroke-opacity="1.000000" stroke-width="1.000000" stroke-linejoin="round" stroke-linecap="round"/>
			<path id="Vector" d="M11.99 18.67L11.99 18.09" stroke="#FFFFFF" stroke-opacity="1.000000" stroke-width="1.000000" stroke-linejoin="round" stroke-linecap="round"/>
			<path id="Vector" d="M11.18 11.18L9.31 9.31" stroke="#FFFFFF" stroke-opacity="1.000000" stroke-width="1.000000" stroke-linejoin="round" stroke-linecap="round"/>
			<path id="Vector" d="M12.81 11.18L16.29 7.7" stroke="#FFFFFF" stroke-opacity="1.000000" stroke-width="1.000000" stroke-linejoin="round" stroke-linecap="round"/>
		</g>
		<path id="Vector" d="M6.93 6.46C6.93 6.72 6.72 6.93 6.46 6.93C6.2 6.93 6 6.72 6 6.46C6 6.2 6.2 6 6.46 6C6.72 6 6.93 6.2 6.93 6.46Z" fill="#FFFFFF" fill-opacity="1.000000" fill-rule="nonzero"/>
		<path id="Vector" d="" fill="#FFFFFF" fill-opacity="1.000000" fill-rule="evenodd"/>
	</g>
</svg>
