<svg width="24.000000" height="24.000000" viewBox="0 0 24 24" fill="none" xmlns="http://www.w3.org/2000/svg" xmlns:xlink="http://www.w3.org/1999/xlink">
	<desc>
			Created with Pixso.
	</desc>
	<defs/>
	<mask id="mask198_498" mask-type="alpha" maskUnits="userSpaceOnUse" x="0.000000" y="-0.000031" width="24.000000" height="24.000008">
		<path id="Vector" d="M0 -3.06e-5L24 -3.06e-5L24 24L0 24L0 -3.06e-5Z" fill="#000000" fill-opacity="1.000000" fill-rule="nonzero"/>
		<path id="Vector" d="M24 -3.06e-5L0 -3.06e-5L0 24L24 24L24 -3.06e-5ZM23 23L1 23L1 0.99L23 0.99L23 23Z" fill="#000000" fill-opacity="1.000000" fill-rule="evenodd"/>
	</mask>
	<g mask="url(#mask198_498)">
		<path id="Vector" d="M13.66 0.47C19.1 0.47 23.53 4.9 23.53 10.34" stroke="#F49C89" stroke-opacity="1.000000" stroke-width="1.200000" stroke-linejoin="round" stroke-linecap="round"/>
		<path id="Vector" d="M13.66 3.29C17.54 3.29 20.71 6.45 20.71 10.34" stroke="#F49C89" stroke-opacity="1.000000" stroke-width="1.200000" stroke-linejoin="round" stroke-linecap="round"/>
		<path id="Vector" d="M13.66 6.11C15.99 6.11 17.89 8.01 17.89 10.34" stroke="#F49C89" stroke-opacity="1.000000" stroke-width="1.200000" stroke-linejoin="round" stroke-linecap="round"/>
		<path id="Vector" d="M13.66 8.93C14.43 8.93 15.07 9.56 15.07 10.34" stroke="#F49C89" stroke-opacity="1.000000" stroke-width="1.200000" stroke-linejoin="round" stroke-linecap="round"/>
		<path id="Vector" d="M8.78 15.22C8.78 15.48 8.57 15.69 8.31 15.69C8.05 15.69 7.84 15.48 7.84 15.22C7.84 14.96 8.05 14.75 8.31 14.75C8.57 14.75 8.78 14.96 8.78 15.22Z" fill="#F49C89" fill-opacity="1.000000" fill-rule="nonzero"/>
		<path id="Vector" d="" fill="#F49C89" fill-opacity="1.000000" fill-rule="evenodd"/>
		<path id="Vector" d="M6.94 13.62C6.64 13.23 6.36 12.82 6.1 12.41C5.75 11.86 5.85 11.14 6.31 10.68L7.9 9.09C8.25 8.75 8.25 8.19 7.9 7.85L4.16 4.1C3.82 3.76 3.26 3.76 2.92 4.1L1.97 5.05C0.43 6.59 0.02 8.94 0.98 10.89C2.7 14.35 6.23 19.67 13.05 23.01C15 23.97 17.36 23.56 18.9 22.02L19.87 21.05C20.21 20.71 20.21 20.16 19.87 19.81L16.12 16.07C15.78 15.73 15.23 15.73 14.88 16.07L13.29 17.66C12.83 18.12 12.11 18.22 11.56 17.87C10.97 17.5 10.41 17.09 9.87 16.64" stroke="#F49C89" stroke-opacity="1.000000" stroke-width="1.200000" stroke-linejoin="round" stroke-linecap="round"/>
	</g>
</svg>
