<svg width="40.000000" height="40.000000" viewBox="0 0 40 40" fill="none" xmlns="http://www.w3.org/2000/svg" xmlns:xlink="http://www.w3.org/1999/xlink">
	<desc>
			Created with Pixso.
	</desc>
	<defs/>
	<rect id="Rectangle 1" rx="20.000000" width="40.000000" height="40.000000" fill="#34344E" fill-opacity="1.000000"/>
	<path id="Vector" d="M27.92 12.06C25.95 10.09 23.31 9 20.53 9C14.75 9 10.07 13.66 10.07 19.42C10.07 21.25 10.58 23.07 11.46 24.6L10 30L15.56 28.54C17.09 29.34 18.78 29.78 20.53 29.78C26.31 29.78 31 25.11 31 19.35C30.92 16.65 29.9 14.03 27.92 12.06ZM25.58 23.14C25.36 23.72 24.34 24.31 23.82 24.38C23.39 24.45 22.8 24.45 22.21 24.31C21.85 24.16 21.34 24.02 20.75 23.72C18.12 22.63 16.43 20.01 16.29 19.79C16.14 19.64 15.19 18.4 15.19 17.09C15.19 15.78 15.85 15.19 16.07 14.9C16.29 14.61 16.58 14.61 16.8 14.61C16.95 14.61 17.17 14.61 17.31 14.61C17.46 14.61 17.68 14.54 17.9 15.05C18.12 15.56 18.63 16.87 18.7 16.94C18.78 17.09 18.78 17.23 18.7 17.38C18.63 17.53 18.56 17.67 18.41 17.82C18.26 17.96 18.12 18.18 18.04 18.26C17.9 18.4 17.75 18.55 17.9 18.77C18.04 19.06 18.56 19.86 19.36 20.59C20.39 21.46 21.19 21.76 21.48 21.9C21.78 22.05 21.92 21.97 22.07 21.83C22.21 21.68 22.73 21.1 22.87 20.81C23.02 20.52 23.24 20.59 23.46 20.66C23.68 20.73 25 21.39 25.21 21.54C25.51 21.68 25.65 21.76 25.73 21.83C25.8 22.05 25.8 22.56 25.58 23.14Z" fill="#FFFFFF" fill-opacity="1.000000" fill-rule="nonzero"/>
</svg>
